PathFileType	4	(x/y/z)	S01_PSF_T11.trc
DataRate	CameraRate	NumFrames	NumMarkers	Units	OrigDataRate	OrigDataStartFrame	OrigNumFrames
240	240	10	51	mm	240	219	436
Frame#	Time	Sternum			R.Acromium			L.Acromium			Top.Head			R.ASIS			L.ASIS			R.PSIS			L.PSIS			R.Great.Tro			L.Great.Tro			R.Iliac.Crest			L.Iliac.Crest			V.Sacral			R.Thigh.Upper.Post			R.Thigh.Lower.Ant			R.Thigh.Lower.Post			R.Thigh.Upper.Ant			R.Knee.Lat			R.Knee.Med			R.Shank.Upper.Post			R.Shank.Lower.Ant			R.Shank.Lower.Post			R.Shank.Upper.Ant			R.Ankle.Lat			R.Ankle.Med			R.Heel.Upper			R.Heel.Med			R.Heel.Lat			R.Toe.Lat			R.Toe.Med			R.Toe.Tip			L.Thigh.Upper.Post			L.Thigh.Lower.Ant			L.Thigh.Lower.Post			L.Thigh.Upper.Ant			L.Knee.Lat			L.Knee.Med			L.Shank.Upper.Post			L.Shank.Lower.Ant			L.Shank.Lower.Post			L.Shank.Upper.Ant			L.Ankle.Lat			L.Ankle.Med			L.Heel.Upper			L.Heel.Med			L.Heel.Lat			L.Toe.Lat			L.Toe.Med			L.Toe.Tip			Cervical.Spine			Back			
		X1	Y1	Z1	X2	Y2	Z2	X3	Y3	Z3	X4	Y4	Z4	X5	Y5	Z5	X6	Y6	Z6	X7	Y7	Z7	X8	Y8	Z8	X9	Y9	Z9	X10	Y10	Z10	X11	Y11	Z11	X12	Y12	Z12	X13	Y13	Z13	X14	Y14	Z14	X15	Y15	Z15	X16	Y16	Z16	X17	Y17	Z17	X18	Y18	Z18	X19	Y19	Z19	X20	Y20	Z20	X21	Y21	Z21	X22	Y22	Z22	X23	Y23	Z23	X24	Y24	Z24	X25	Y25	Z25	X26	Y26	Z26	X27	Y27	Z27	X28	Y28	Z28	X29	Y29	Z29	X30	Y30	Z30	X31	Y31	Z31	X32	Y32	Z32	X33	Y33	Z33	X34	Y34	Z34	X35	Y35	Z35	X36	Y36	Z36	X37	Y37	Z37	X38	Y38	Z38	X39	Y39	Z39	X40	Y40	Z40	X41	Y41	Z41	X42	Y42	Z42	X43	Y43	Z43	X44	Y44	Z44	X45	Y45	Z45	X46	Y46	Z46	X47	Y47	Z47	X48	Y48	Z48	X49	Y49	Z49	X50	Y50	Z50	X51	Y51	Z51	

219	0.90833	-153.56	1274.9	320.07	-223.33	1519.5	524.8	-277.7	1560.8	204.1	-156.16	1840.1	377.06	-205.35	1027.8	475.7	-217.46	1035.7	210.76	-446.05	1079	388.31	-451.64	1072.8	285.85	-289.03	979.03	553.87	-321.22	983.43	132.17	-285.96	1124	547.51	-329.2	1124.5	144.36	-463.38	1039.7	336.24	-352.32	677.94	517.68	-294.71	598.91	486.77	-362.81	591.79	495.68	-280	685.86	509.29	-358.94	523.84	487.48	-350.95	530.85	340.73	-446.51	377.14	498.68	-399.54	287.03	454.66	-462.39	309.31	482.82	-387.2	356.77	475.63	-491.14	105.89	435.19	-456.67	115.92	344.26	-562.64	80.716	372.85	-546.42	51.775	343.77	-552.44	49.733	408.1	-363.48	33.518	470.14	-330.31	42.438	346.27	-267.16	55.75	402.54	-243.24	700.24	149.11	-139.25	664.16	138.78	-200.06	620.88	165.46	-190.96	743.2	123.59	-124.06	562.01	148.82	-85.528	569.91	291.23	-152.59	419.31	134.9	-73.244	343.3	150.78	-136.52	343.04	137.89	-88.358	418.23	143.68	-102.57	128.97	168.52	-64.386	146.84	261.75	-159.47	84.72	226.29	-138.39	63.945	257.54	-149.7	60.658	195.68	48.1	84.515	131.85	88.762	103.13	247.51	139.11	125.51	186.49	-326.73	1603.1	386.97	-443.85	1299.8	388.86
220	0.9125	-148.15	1273.7	320	-217.94	1518.4	524.48	-272.07	1559.5	203.75	-150.73	1839.1	376.56	-200.12	1026.8	475.69	-212.05	1034.4	210.71	-440.74	1078	388.17	-446.29	1071.7	285.74	-284	978.27	553.95	-315.82	982.06	132.18	-280.74	1123.1	547.45	-323.83	1123.2	144.22	-458.1	1038.7	336.15	-349.26	677.69	517.72	-292.17	598.31	486.73	-360.27	591.58	495.81	-276.96	685.2	509.16	-357.05	523.52	487.62	-349.14	530.64	340.66	-445.35	377.21	498.8	-398.72	286.89	454.79	-461.52	309.46	482.91	-386.11	356.58	475.78	-491.02	105.99	435.18	-456.49	116.01	344.28	-562.52	80.898	372.82	-546.34	51.96	343.75	-552.37	49.899	408.07	-363.49	33.482	470.22	-330.26	42.412	346.32	-267.1	55.6	402.6	-238.67	698.6	149.74	-134.74	662.39	139.41	-195.56	619.25	166.3	-186.36	741.44	124.07	-118.79	560.68	149.78	-81.102	568.41	292.56	-143.84	417.44	135.4	-62.766	343.25	151.49	-125.99	341.51	138.32	-79.601	417.84	144.49	-86.537	127.93	168.64	-49.507	146.62	262.14	-142.72	82.152	225.92	-121.38	61.864	257.31	-132.16	58.418	195.34	65.488	87.278	133.01	104.76	106.76	249	155.02	130.45	188.37	-321.28	1602	386.59	-438.4	1298.6	388.48
221	0.91667	-142.73	1272.4	319.92	-212.54	1517.3	524.12	-266.43	1558.2	203.38	-145.28	1838	376.04	-194.87	1025.7	475.68	-206.6	1033	210.64	-435.42	1077	388.03	-440.93	1070.6	285.64	-278.93	977.49	554.03	-310.4	980.66	132.19	-275.5	1122.1	547.39	-318.44	1121.8	144.06	-452.79	1037.7	336.06	-346.13	677.41	517.76	-289.54	597.7	486.69	-357.63	591.35	495.94	-273.85	684.53	509.05	-355.06	523.2	487.77	-347.24	530.42	340.58	-444.12	377.29	498.92	-397.85	286.74	454.92	-460.58	309.61	483.01	-384.94	356.39	475.93	-490.89	106.1	435.16	-456.3	116.12	344.29	-562.4	81.101	372.8	-546.25	52.167	343.73	-552.29	50.082	408.04	-363.5	33.455	470.31	-330.19	42.382	346.37	-267.05	55.439	402.66	-234.06	696.94	150.32	-130.18	660.6	140.01	-191.01	617.59	167.08	-181.72	739.66	124.49	-113.48	559.32	150.71	-76.701	566.88	293.88	-135.13	415.63	135.91	-52.426	343.25	152.22	-115.58	340.07	138.76	-70.926	417.48	145.3	-70.758	127.09	168.83	-34.911	146.56	262.58	-126.25	79.827	225.6	-104.66	60.02	257.15	-114.88	56.425	195.06	82.531	90.173	134.29	120.37	110.51	250.61	170.54	135.47	190.38	-315.83	1601	386.18	-432.93	1297.5	388.09
222	0.92083	-137.29	1271.1	319.83	-207.13	1516.2	523.75	-260.79	1556.9	202.99	-139.81	1836.8	375.51	-189.59	1024.6	475.68	-201.13	1031.7	210.57	-430.09	1075.9	387.89	-435.56	1069.4	285.54	-273.83	976.68	554.1	-304.95	979.22	132.2	-270.25	1121.1	547.32	-313.04	1120.3	143.88	-447.46	1036.6	335.97	-342.92	677.1	517.81	-286.81	597.07	486.66	-354.91	591.09	496.06	-270.64	683.84	508.95	-352.96	522.85	487.9	-345.23	530.2	340.5	-442.79	377.37	499.04	-396.91	286.58	455.04	-459.57	309.76	483.1	-383.69	356.17	476.07	-490.74	106.22	435.16	-456.1	116.23	344.3	-562.26	81.328	372.78	-546.16	52.399	343.71	-552.21	50.286	408.01	-363.51	33.434	470.4	-330.12	42.351	346.42	-266.99	55.265	402.72	-229.39	695.27	150.84	-125.56	658.8	140.55	-186.41	615.93	167.8	-177.03	737.86	124.86	-108.13	557.96	151.62	-72.31	565.31	295.2	-126.48	413.89	136.41	-42.232	343.3	152.97	-105.28	338.73	139.21	-62.334	417.14	146.11	-55.264	126.41	169.09	-20.617	146.63	263.08	-110.1	77.734	225.34	-88.266	58.402	257.06	-97.907	54.665	194.86	99.192	93.167	135.67	135.56	114.34	252.32	185.65	140.52	192.49	-310.38	1599.8	385.73	-427.46	1296.3	387.68
223	0.925	-131.84	1269.7	319.72	-201.72	1515	523.35	-255.14	1555.5	202.57	-134.32	1835.7	374.96	-184.29	1023.5	475.68	-195.63	1030.3	210.49	-424.73	1074.8	387.74	-430.18	1068.2	285.44	-268.71	975.84	554.17	-299.46	977.74	132.2	-265	1120.1	547.26	-307.61	1118.8	143.68	-442.1	1035.4	335.88	-339.63	676.76	517.85	-283.97	596.42	486.63	-352.1	590.81	496.17	-267.35	683.13	508.88	-350.75	522.49	488.03	-343.09	529.96	340.41	-441.38	377.45	499.16	-395.89	286.41	455.16	-458.48	309.91	483.2	-382.36	355.95	476.21	-490.58	106.36	435.15	-455.88	116.37	344.32	-562.11	81.582	372.77	-546.07	52.661	343.7	-552.12	50.514	407.98	-363.51	33.418	470.5	-330.05	42.317	346.47	-266.93	55.08	402.78	-224.65	693.59	151.3	-120.86	657.01	141.06	-181.73	614.26	168.47	-172.26	736.07	125.18	-102.74	556.6	152.5	-67.915	563.73	296.51	-117.89	412.21	136.91	-32.195	343.38	153.74	-95.113	337.46	139.67	-53.831	416.81	146.92	-40.088	125.89	169.43	-6.6465	146.81	263.65	-94.29	75.86	225.15	-72.22	56.992	257.08	-81.277	53.122	194.76	115.44	96.224	137.15	150.33	118.21	254.12	200.32	145.56	194.68	-304.92	1598.7	385.26	-421.98	1295.1	387.26
224	0.92917	-126.37	1268.4	319.6	-196.3	1513.8	522.92	-249.49	1554.1	202.13	-128.82	1834.5	374.39	-178.96	1022.4	475.69	-190.1	1028.9	210.41	-419.36	1073.7	387.59	-424.78	1066.9	285.35	-263.56	974.98	554.24	-293.93	976.24	132.2	-259.74	1119	547.19	-302.17	1117.2	143.47	-436.72	1034.2	335.78	-336.25	676.39	517.89	-281.03	595.75	486.61	-349.18	590.5	496.28	-263.97	682.4	508.82	-348.42	522.11	488.16	-340.83	529.7	340.33	-439.87	377.53	499.27	-394.81	286.23	455.28	-457.32	310.07	483.29	-380.93	355.7	476.35	-490.4	106.52	435.15	-455.64	116.52	344.34	-561.96	81.868	372.76	-545.97	52.955	343.69	-552.02	50.768	407.96	-363.52	33.405	470.59	-329.97	42.283	346.52	-266.86	54.881	402.84	-219.81	691.92	151.69	-116.05	655.25	141.54	-176.94	612.61	169.08	-167.39	734.29	125.44	-97.281	555.24	153.36	-63.502	562.15	297.8	-109.38	410.59	137.42	-22.322	343.47	154.53	-85.092	336.28	140.16	-45.42	416.5	147.73	-25.262	125.5	169.86	6.9816	147.09	264.28	-78.861	74.19	225.06	-56.56	55.775	257.19	-65.033	51.777	194.76	131.24	99.306	138.72	164.66	122.07	256	214.55	150.54	196.94	-299.46	1597.5	384.76	-416.5	1293.9	386.83
225	0.93333	-120.89	1267	319.47	-190.88	1512.6	522.47	-243.83	1552.7	201.66	-123.3	1833.3	373.81	-173.62	1021.3	475.7	-184.54	1027.5	210.31	-413.98	1072.5	387.44	-419.37	1065.6	285.25	-258.38	974.11	554.3	-288.36	974.72	132.19	-254.47	1118	547.12	-296.71	1115.6	143.25	-431.32	1032.9	335.68	-332.78	676	517.94	-277.99	595.06	486.59	-346.16	590.16	496.37	-260.5	681.65	508.78	-345.97	521.72	488.28	-338.41	529.42	340.25	-438.26	377.6	499.38	-393.64	286.03	455.39	-456.08	310.23	483.38	-379.4	355.44	476.48	-490.2	106.7	435.15	-455.38	116.69	344.36	-561.78	82.189	372.76	-545.86	53.286	343.67	-551.92	51.051	407.94	-363.52	33.391	470.69	-329.88	42.247	346.57	-266.78	54.67	402.91	-214.87	690.26	152.04	-111.13	653.52	141.99	-172.04	610.98	169.64	-162.42	732.54	125.66	-91.754	553.89	154.18	-59.055	560.57	299.07	-100.95	409.03	137.94	-12.623	343.57	155.34	-75.228	335.16	140.67	-37.106	416.19	148.53	-10.821	125.22	170.37	20.247	147.45	264.97	-63.842	72.705	225.06	-41.318	54.731	257.42	-49.214	50.609	194.87	146.55	102.37	140.36	178.52	125.89	257.93	228.31	155.43	199.25	-294	1596.4	384.22	-411.02	1292.6	386.4
226	0.9375	-115.4	1265.6	319.32	-185.45	1511.4	521.99	-238.17	1551.2	201.17	-117.77	1832	373.19	-168.25	1020.2	475.71	-178.96	1026	210.21	-408.58	1071.2	387.27	-413.95	1064.2	285.15	-253.18	973.21	554.35	-282.75	973.19	132.17	-249.21	1116.8	547.05	-291.23	1114	143.01	-425.88	1031.6	335.58	-329.22	675.58	517.98	-274.83	594.35	486.59	-343.03	589.8	496.46	-256.92	680.88	508.76	-343.4	521.3	488.39	-335.84	529.12	340.19	-436.55	377.68	499.48	-392.4	285.83	455.5	-454.75	310.39	483.46	-377.78	355.16	476.61	-489.98	106.9	435.16	-455.1	116.87	344.38	-561.6	82.549	372.76	-545.74	53.657	343.67	-551.8	51.368	407.92	-363.52	33.376	470.78	-329.79	42.211	346.62	-266.69	54.447	402.97	-209.8	688.64	152.33	-106.08	651.83	142.41	-167.01	609.38	170.15	-157.33	730.82	125.85	-86.148	552.56	154.98	-54.559	559.01	300.31	-92.602	407.53	138.48	-3.1057	343.67	156.17	-65.535	334.1	141.21	-28.892	415.87	149.33	3.2039	125.03	170.98	33.13	147.86	265.74	-49.262	71.388	225.17	-26.529	53.839	257.77	-33.858	49.597	195.11	161.36	105.39	142.07	191.91	129.63	259.91	241.58	160.16	201.58	-288.54	1595.2	383.66	-405.53	1291.3	385.97
227	0.94167	-109.89	1264.1	319.16	-180.01	1510.1	521.49	-232.51	1549.8	200.64	-112.23	1830.8	372.55	-162.87	1019.1	475.73	-173.35	1024.6	210.1	-403.16	1069.9	387.1	-408.51	1062.8	285.05	-247.95	972.31	554.4	-277.09	971.64	132.13	-243.94	1115.7	546.98	-285.73	1112.3	142.77	-420.42	1030.3	335.46	-325.56	675.13	518.02	-271.55	593.63	486.58	-339.79	589.41	496.53	-253.25	680.1	508.75	-340.69	520.86	488.49	-333.11	528.79	340.14	-434.74	377.75	499.58	-391.07	285.61	455.61	-453.33	310.56	483.55	-376.06	354.87	476.74	-489.74	107.13	435.17	-454.8	117.09	344.4	-561.4	82.952	372.78	-545.62	54.072	343.66	-551.68	51.72	407.9	-363.52	33.359	470.87	-329.69	42.175	346.67	-266.59	54.21	403.04	-204.59	687.05	152.57	-100.88	650.2	142.83	-161.83	607.83	170.62	-152.1	729.15	126	-80.456	551.24	155.75	-49.998	557.48	301.52	-84.354	406.07	139.03	6.2216	343.74	157.03	-56.024	333.09	141.78	-20.784	415.54	150.14	16.783	124.9	171.68	45.612	148.3	266.58	-35.15	70.217	225.4	-12.224	53.079	258.24	-19.005	48.715	195.49	175.62	108.3	143.82	204.81	133.25	261.91	254.37	164.7	203.91	-283.08	1593.9	383.06	-400.05	1290	385.53
228	0.94583	-104.36	1262.7	318.98	-174.57	1508.9	520.95	-226.84	1548.3	200.09	-106.67	1829.5	371.89	-157.46	1018	475.75	-167.72	1023.2	209.99	-397.72	1068.6	386.91	-403.05	1061.4	284.94	-242.7	971.39	554.44	-271.38	970.09	132.08	-238.67	1114.5	546.91	-280.2	1110.6	142.52	-414.94	1028.9	335.34	-321.81	674.65	518.06	-268.16	592.89	486.58	-336.43	589	496.6	-249.48	679.3	508.76	-337.86	520.41	488.59	-330.22	528.42	340.11	-432.81	377.82	499.67	-389.66	285.39	455.72	-451.82	310.74	483.62	-374.23	354.57	476.87	-489.47	107.38	435.18	-454.48	117.32	344.43	-561.19	83.403	372.8	-545.49	54.533	343.65	-551.55	52.113	407.89	-363.52	33.34	470.94	-329.58	42.138	346.72	-266.48	53.962	403.1	-199.24	685.5	152.78	-95.519	648.63	143.24	-156.5	606.32	171.04	-146.72	727.53	126.13	-74.67	549.95	156.5	-45.355	556	302.68	-76.21	404.67	139.61	15.352	343.77	157.9	-46.706	332.12	142.39	-12.784	415.18	150.95	29.886	124.82	172.48	57.673	148.76	267.49	-21.537	69.174	225.76	1.5644	52.428	258.84	-4.6911	47.943	196	189.32	111.08	145.62	217.21	136.69	263.93	266.65	169.01	206.23	-277.61	1592.7	382.44	-394.57	1288.7	385.09
